<svg width="69" height="10" viewBox="0 0 69 10" fill="none" xmlns="http://www.w3.org/2000/svg">
<ellipse cx="29.3416" cy="6.51199" rx="3" ry="3" transform="rotate(90 29.3416 6.51199)" fill="#61C6FF"/>
<ellipse cx="23.3416" cy="6.51199" rx="3" ry="3" transform="rotate(90 23.3416 6.51199)" fill="#31F7C8"/>
<path d="M19.0896 6.87201H14.4336C14.4816 7.42401 14.6696 7.83601 14.9976 8.10801C15.3336 8.38001 15.7416 8.51601 16.2216 8.51601C16.6296 8.51601 16.9736 8.42401 17.2536 8.24001C17.5336 8.05601 17.7496 7.80401 17.9016 7.48401L18.8496 7.86801C18.6256 8.38001 18.2776 8.78001 17.8056 9.06801C17.3416 9.34801 16.8096 9.48801 16.2096 9.48801C15.7856 9.48801 15.3976 9.41601 15.0456 9.27201C14.6936 9.12001 14.3896 8.91201 14.1336 8.64801C13.8856 8.37601 13.6896 8.05201 13.5456 7.67601C13.4096 7.30001 13.3416 6.88401 13.3416 6.42801C13.3416 5.97201 13.4096 5.55201 13.5456 5.16801C13.6816 4.78401 13.8736 4.45601 14.1216 4.18401C14.3776 3.90401 14.6856 3.68801 15.0456 3.53601C15.4056 3.38401 15.8056 3.30801 16.2456 3.30801C16.6696 3.30801 17.0536 3.38401 17.3976 3.53601C17.7496 3.68001 18.0496 3.88801 18.2976 4.16001C18.5536 4.42401 18.7496 4.74801 18.8856 5.13201C19.0216 5.50801 19.0896 5.93201 19.0896 6.40401V6.87201ZM17.9376 6.05601C17.9056 5.47201 17.7376 5.02801 17.4336 4.72401C17.1296 4.42001 16.7256 4.26801 16.2216 4.26801C15.7176 4.26801 15.3096 4.42401 14.9976 4.73601C14.6856 5.04001 14.5016 5.48001 14.4456 6.05601H17.9376Z" fill="#0D0D0D"/>
<path d="M11.6496 9.37999C11.6176 9.25199 11.5936 9.12799 11.5776 9.00799C11.5696 8.87999 11.5616 8.74799 11.5536 8.61199C11.3776 8.89999 11.1256 9.12399 10.7976 9.28399C10.4776 9.44399 10.1136 9.52399 9.70558 9.52399C9.05758 9.52399 8.49758 9.33199 8.02558 8.94799C7.56958 8.56399 7.34158 7.93599 7.34158 7.06399V3.51199H8.48158V6.87199C8.48158 7.46399 8.62558 7.88799 8.91358 8.14399C9.19358 8.39199 9.53358 8.51599 9.93358 8.51599C10.3896 8.51599 10.7696 8.37199 11.0736 8.08399C11.3776 7.78799 11.5296 7.36399 11.5296 6.81199V3.51199H12.6576V8.29999C12.6576 8.46799 12.6696 8.65999 12.6936 8.87599C12.7176 9.08399 12.7456 9.25199 12.7776 9.37999H11.6496Z" fill="#0D0D0D"/>
<path d="M5.36958 9.34399C5.33758 9.18399 5.31358 9.02799 5.29758 8.87599C5.28958 8.72399 5.28158 8.57199 5.27358 8.41999C5.07358 8.76399 4.78958 9.02799 4.42158 9.21199C4.05358 9.39599 3.64158 9.48799 3.18558 9.48799C2.76158 9.48799 2.37358 9.41599 2.02158 9.27199C1.66958 9.12799 1.36958 8.92399 1.12158 8.65999C0.873583 8.39599 0.681583 8.07599 0.545583 7.69999C0.409583 7.31599 0.341583 6.88799 0.341583 6.41599C0.341583 5.95999 0.409583 5.54399 0.545583 5.16799C0.689583 4.78399 0.885583 4.45599 1.13358 4.18399C1.38958 3.90399 1.69358 3.68799 2.04558 3.53599C2.39758 3.38399 2.78558 3.30799 3.20958 3.30799C3.64158 3.30799 4.03758 3.39599 4.39758 3.57199C4.76558 3.73999 5.05358 3.99199 5.26158 4.32799V0.511993H6.38958V7.93999C6.38958 8.05199 6.38958 8.17199 6.38958 8.29999C6.39758 8.42799 6.40558 8.56799 6.41358 8.71999C6.42958 8.87199 6.44158 8.99999 6.44958 9.10399C6.46558 9.20799 6.48158 9.28799 6.49758 9.34399H5.36958ZM5.20158 6.40399C5.20158 5.77999 5.03358 5.27999 4.69758 4.90399C4.36958 4.51999 3.91758 4.32799 3.34158 4.32799C2.78158 4.32799 2.33358 4.51999 1.99758 4.90399C1.66158 5.27999 1.49358 5.77999 1.49358 6.40399C1.49358 7.02799 1.66158 7.52799 1.99758 7.90399C2.33358 8.27999 2.78158 8.46799 3.34158 8.46799C3.91758 8.46799 4.36958 8.27999 4.69758 7.90399C5.03358 7.52799 5.20158 7.02799 5.20158 6.40399Z" fill="#0D0D0D"/>
<path d="M67.1112 1.30399C67.1112 1.07999 67.1832 0.891993 67.3272 0.739993C67.4792 0.587993 67.6672 0.511993 67.8912 0.511993C68.1152 0.511993 68.3032 0.587993 68.4552 0.739993C68.6072 0.891993 68.6832 1.07999 68.6832 1.30399C68.6832 1.52799 68.6072 1.71599 68.4552 1.86799C68.3032 2.01999 68.1152 2.09599 67.8912 2.09599C67.6672 2.09599 67.4792 2.01999 67.3272 1.86799C67.1832 1.71599 67.1112 1.52799 67.1112 1.30399ZM68.4672 3.39199V9.25999H67.3272V3.39199H68.4672Z" fill="#0D0D0D"/>
<path d="M66.7805 3.392L64.3445 9.26H63.2165L60.8405 3.392H62.0645L63.8045 7.928L65.6045 3.392H66.7805Z" fill="#0D0D0D"/>
<path d="M60.5446 1.30399C60.5446 1.52799 60.4686 1.71599 60.3166 1.86799C60.1646 2.01999 59.9766 2.09599 59.7526 2.09599C59.5286 2.09599 59.3406 2.01999 59.1886 1.86799C59.0366 1.71599 58.9606 1.52799 58.9606 1.30399C58.9606 1.07999 59.0366 0.891993 59.1886 0.739993C59.3406 0.587993 59.5286 0.511993 59.7526 0.511993C59.9766 0.511993 60.1646 0.587993 60.3166 0.739993C60.4686 0.891993 60.5446 1.07999 60.5446 1.30399ZM60.3166 9.25999H59.1766V4.32799H56.9686V9.25999H55.8526V4.32799H54.7006V3.39199H55.8526V1.55599H56.9686V3.39199H60.3166V9.25999Z" fill="#0D0D0D"/>
<path d="M53.3856 9.26003C53.3696 9.17203 53.3536 9.06403 53.3376 8.93603C53.3216 8.80003 53.3056 8.64403 53.2896 8.46803C53.1216 8.74803 52.8656 8.97603 52.5216 9.15203C52.1856 9.32003 51.7976 9.40403 51.3576 9.40403C50.7096 9.40403 50.1896 9.24003 49.7976 8.91203C49.4136 8.57603 49.2216 8.12003 49.2216 7.54403C49.2216 6.96803 49.4136 6.51603 49.7976 6.18803C50.1896 5.86003 50.7136 5.69603 51.3696 5.69603H53.2656V5.45603C53.2656 5.00003 53.1416 4.67203 52.8936 4.47203C52.6456 4.26403 52.3056 4.16003 51.8736 4.16003C51.1056 4.16003 50.5696 4.47203 50.2656 5.09603L49.4256 4.60403C49.6656 4.14003 49.9976 3.79603 50.4216 3.57203C50.8536 3.34003 51.3576 3.22403 51.9336 3.22403C52.2936 3.22403 52.6216 3.26803 52.9176 3.35603C53.2216 3.44403 53.4776 3.58403 53.6856 3.77603C53.9016 3.96803 54.0696 4.21203 54.1896 4.50803C54.3096 4.79603 54.3696 5.14403 54.3696 5.55203V8.04803C54.3696 8.28803 54.3776 8.52403 54.3936 8.75603C54.4176 8.98803 54.4456 9.15603 54.4776 9.26003H53.3856ZM53.2776 6.52403H51.6216C51.2136 6.52403 50.9016 6.61603 50.6856 6.80003C50.4696 6.97603 50.3616 7.22003 50.3616 7.53203C50.3616 7.85203 50.4736 8.10003 50.6976 8.27603C50.9216 8.44403 51.2256 8.52803 51.6096 8.52803C52.1136 8.52803 52.5176 8.37203 52.8216 8.06003C53.1256 7.74003 53.2776 7.28003 53.2776 6.68003V6.52403Z" fill="#0D0D0D"/>
<path d="M48.8874 6.78803H44.2314C44.2794 7.34003 44.4674 7.75203 44.7954 8.02403C45.1314 8.29603 45.5394 8.43203 46.0194 8.43203C46.4274 8.43203 46.7714 8.34003 47.0514 8.15603C47.3314 7.97203 47.5474 7.72003 47.6994 7.40003L48.6474 7.78403C48.4234 8.29603 48.0754 8.69603 47.6034 8.98403C47.1394 9.26403 46.6074 9.40403 46.0074 9.40403C45.5834 9.40403 45.1954 9.33203 44.8434 9.18803C44.4914 9.03603 44.1874 8.82803 43.9314 8.56403C43.6834 8.29203 43.4874 7.96803 43.3434 7.59203C43.2074 7.21603 43.1394 6.80003 43.1394 6.34403C43.1394 5.88803 43.2074 5.46803 43.3434 5.08403C43.4794 4.70003 43.6714 4.37203 43.9194 4.10003C44.1754 3.82003 44.4834 3.60403 44.8434 3.45203C45.2034 3.30003 45.6034 3.22403 46.0434 3.22403C46.4674 3.22403 46.8514 3.30003 47.1954 3.45203C47.5474 3.59603 47.8474 3.80403 48.0954 4.07603C48.3514 4.34003 48.5474 4.66403 48.6834 5.04803C48.8194 5.42403 48.8874 5.84803 48.8874 6.32003V6.78803ZM47.7354 5.97203C47.7034 5.38803 47.5354 4.94403 47.2314 4.64003C46.9274 4.33603 46.5234 4.18403 46.0194 4.18403C45.5154 4.18403 45.1074 4.34003 44.7954 4.65203C44.4834 4.95603 44.2994 5.39603 44.2434 5.97203H47.7354Z" fill="#0D0D0D"/>
<path d="M42.4961 3.32001C42.7121 3.32001 42.9281 3.34401 43.1441 3.39201V4.43601C42.9201 4.38801 42.7081 4.36401 42.5081 4.36401C42.0041 4.36401 41.6121 4.52001 41.3321 4.83201C41.0521 5.14401 40.9121 5.57601 40.9121 6.12801V9.26001H39.7721V3.40401H40.8281L40.8881 4.12401C41.0081 3.86001 41.2121 3.66001 41.5001 3.52401C41.7961 3.38801 42.1281 3.32001 42.4961 3.32001Z" fill="#0D0D0D"/>
<path d="M36.3056 3.22403C36.9616 3.22403 37.5256 3.38403 37.9976 3.70403C38.4696 4.02403 38.8016 4.44803 38.9936 4.97603L37.9976 5.37203C37.8696 5.01203 37.6536 4.73603 37.3496 4.54403C37.0536 4.34403 36.7096 4.24403 36.3176 4.24403C35.7576 4.24403 35.3096 4.43603 34.9736 4.82003C34.6456 5.19603 34.4816 5.70003 34.4816 6.33203C34.4816 6.95603 34.6496 7.45603 34.9856 7.83203C35.3216 8.20003 35.7656 8.38403 36.3176 8.38403C36.7096 8.38403 37.0576 8.28803 37.3616 8.09603C37.6656 7.89603 37.8816 7.62403 38.0096 7.28003L38.9936 7.65203C38.7776 8.21203 38.4296 8.64403 37.9496 8.94803C37.4696 9.25203 36.9176 9.40403 36.2936 9.40403C35.8536 9.40403 35.4496 9.33203 35.0816 9.18803C34.7216 9.03603 34.4136 8.82803 34.1576 8.56403C33.9016 8.29203 33.7016 7.96803 33.5576 7.59203C33.4136 7.20803 33.3416 6.78803 33.3416 6.33203C33.3416 5.86803 33.4096 5.44803 33.5456 5.07203C33.6896 4.68803 33.8896 4.36003 34.1456 4.08803C34.4096 3.81603 34.7216 3.60403 35.0816 3.45203C35.4496 3.30003 35.8576 3.22403 36.3056 3.22403Z" fill="#0D0D0D"/>
</svg>
