<svg width="39" height="16" viewBox="0 0 39 16" fill="none" xmlns="http://www.w3.org/2000/svg">
<path d="M36.7696 7.87598C36.7696 7.65198 36.8416 7.46398 36.9856 7.31198C37.1376 7.15998 37.3256 7.08398 37.5496 7.08398C37.7736 7.08398 37.9616 7.15998 38.1136 7.31198C38.2656 7.46398 38.3416 7.65198 38.3416 7.87598C38.3416 8.09998 38.2656 8.28798 38.1136 8.43998C37.9616 8.59198 37.7736 8.66798 37.5496 8.66798C37.3256 8.66798 37.1376 8.59198 36.9856 8.43998C36.8416 8.28798 36.7696 8.09998 36.7696 7.87598ZM38.1256 9.96398V15.832H36.9856V9.96398H38.1256Z" fill="#0D0D0D"/>
<path d="M36.4389 9.96399L34.0029 15.832H32.8749L30.4989 9.96399H31.7229L33.4629 14.5L35.2629 9.96399H36.4389Z" fill="#0D0D0D"/>
<path d="M30.203 7.87598C30.203 8.09998 30.127 8.28798 29.975 8.43998C29.823 8.59198 29.635 8.66798 29.411 8.66798C29.187 8.66798 28.999 8.59198 28.847 8.43998C28.695 8.28798 28.619 8.09998 28.619 7.87598C28.619 7.65198 28.695 7.46398 28.847 7.31198C28.999 7.15998 29.187 7.08398 29.411 7.08398C29.635 7.08398 29.823 7.15998 29.975 7.31198C30.127 7.46398 30.203 7.65198 30.203 7.87598ZM29.975 15.832H28.835V10.9H26.627V15.832H25.511V10.9H24.359V9.96398H25.511V8.12798H26.627V9.96398H29.975V15.832Z" fill="#0D0D0D"/>
<path d="M23.044 15.832C23.028 15.744 23.012 15.636 22.996 15.508C22.98 15.372 22.964 15.216 22.948 15.04C22.78 15.32 22.524 15.548 22.18 15.724C21.844 15.892 21.456 15.976 21.016 15.976C20.368 15.976 19.848 15.812 19.456 15.484C19.072 15.148 18.88 14.692 18.88 14.116C18.88 13.54 19.072 13.088 19.456 12.76C19.848 12.432 20.372 12.268 21.028 12.268H22.924V12.028C22.924 11.572 22.8 11.244 22.552 11.044C22.304 10.836 21.964 10.732 21.532 10.732C20.764 10.732 20.228 11.044 19.924 11.668L19.084 11.176C19.324 10.712 19.656 10.368 20.08 10.144C20.512 9.91202 21.016 9.79602 21.592 9.79602C21.952 9.79602 22.28 9.84002 22.576 9.92802C22.88 10.016 23.136 10.156 23.344 10.348C23.56 10.54 23.728 10.784 23.848 11.08C23.968 11.368 24.028 11.716 24.028 12.124V14.62C24.028 14.86 24.036 15.096 24.052 15.328C24.076 15.56 24.104 15.728 24.136 15.832H23.044ZM22.936 13.096H21.28C20.872 13.096 20.56 13.188 20.344 13.372C20.128 13.548 20.02 13.792 20.02 14.104C20.02 14.424 20.132 14.672 20.356 14.848C20.58 15.016 20.884 15.1 21.268 15.1C21.772 15.1 22.176 14.944 22.48 14.632C22.784 14.312 22.936 13.852 22.936 13.252V13.096Z" fill="#0D0D0D"/>
<path d="M18.5458 13.36H13.8898C13.9378 13.912 14.1258 14.324 14.4538 14.596C14.7898 14.868 15.1978 15.004 15.6778 15.004C16.0858 15.004 16.4298 14.912 16.7098 14.728C16.9898 14.544 17.2058 14.292 17.3578 13.972L18.3058 14.356C18.0818 14.868 17.7338 15.268 17.2618 15.556C16.7978 15.836 16.2658 15.976 15.6658 15.976C15.2418 15.976 14.8538 15.904 14.5018 15.76C14.1498 15.608 13.8458 15.4 13.5898 15.136C13.3418 14.864 13.1458 14.54 13.0018 14.164C12.8658 13.788 12.7978 13.372 12.7978 12.916C12.7978 12.46 12.8658 12.04 13.0018 11.656C13.1378 11.272 13.3298 10.944 13.5778 10.672C13.8338 10.392 14.1418 10.176 14.5018 10.024C14.8618 9.87202 15.2618 9.79602 15.7018 9.79602C16.1258 9.79602 16.5098 9.87202 16.8538 10.024C17.2058 10.168 17.5058 10.376 17.7538 10.648C18.0098 10.912 18.2058 11.236 18.3418 11.62C18.4778 11.996 18.5458 12.42 18.5458 12.892V13.36ZM17.3938 12.544C17.3618 11.96 17.1938 11.516 16.8898 11.212C16.5858 10.908 16.1818 10.756 15.6778 10.756C15.1738 10.756 14.7658 10.912 14.4538 11.224C14.1418 11.528 13.9578 11.968 13.9018 12.544H17.3938Z" fill="#0D0D0D"/>
<path d="M12.1545 9.892C12.3705 9.892 12.5865 9.916 12.8025 9.964V11.008C12.5785 10.96 12.3665 10.936 12.1665 10.936C11.6625 10.936 11.2705 11.092 10.9905 11.404C10.7105 11.716 10.5705 12.148 10.5705 12.7V15.832H9.43051V9.976H10.4865L10.5465 10.696C10.6665 10.432 10.8705 10.232 11.1585 10.096C11.4545 9.96 11.7865 9.892 12.1545 9.892Z" fill="#0D0D0D"/>
<path d="M5.964 9.79602C6.62 9.79602 7.184 9.95602 7.656 10.276C8.128 10.596 8.46 11.02 8.652 11.548L7.656 11.944C7.528 11.584 7.312 11.308 7.008 11.116C6.712 10.916 6.368 10.816 5.976 10.816C5.416 10.816 4.968 11.008 4.632 11.392C4.304 11.768 4.14 12.272 4.14 12.904C4.14 13.528 4.308 14.028 4.644 14.404C4.98 14.772 5.424 14.956 5.976 14.956C6.368 14.956 6.716 14.86 7.02 14.668C7.324 14.468 7.54 14.196 7.668 13.852L8.652 14.224C8.436 14.784 8.088 15.216 7.608 15.52C7.128 15.824 6.576 15.976 5.952 15.976C5.512 15.976 5.108 15.904 4.74 15.76C4.38 15.608 4.072 15.4 3.816 15.136C3.56 14.864 3.36 14.54 3.216 14.164C3.072 13.78 3 13.36 3 12.904C3 12.44 3.068 12.02 3.204 11.644C3.348 11.26 3.548 10.932 3.804 10.66C4.068 10.388 4.38 10.176 4.74 10.024C5.108 9.87202 5.516 9.79602 5.964 9.79602Z" fill="#0D0D0D"/>
<ellipse cx="29" cy="6" rx="3" ry="3" transform="rotate(90 29 6)" fill="#61C6FF"/>
<ellipse cx="23" cy="6" rx="3" ry="3" transform="rotate(90 23 6)" fill="#31F7C8"/>
<path d="M18.748 6.36002H14.092C14.14 6.91202 14.328 7.32402 14.656 7.59602C14.992 7.86802 15.4 8.00402 15.88 8.00402C16.288 8.00402 16.632 7.91202 16.912 7.72802C17.192 7.54402 17.408 7.29202 17.56 6.97202L18.508 7.35602C18.284 7.86802 17.936 8.26802 17.464 8.55602C17 8.83602 16.468 8.97602 15.868 8.97602C15.444 8.97602 15.056 8.90402 14.704 8.76002C14.352 8.60802 14.048 8.40002 13.792 8.13602C13.544 7.86402 13.348 7.54002 13.204 7.16402C13.068 6.78802 13 6.37202 13 5.91602C13 5.46002 13.068 5.04002 13.204 4.65602C13.34 4.27202 13.532 3.94402 13.78 3.67202C14.036 3.39202 14.344 3.17602 14.704 3.02402C15.064 2.87202 15.464 2.79602 15.904 2.79602C16.328 2.79602 16.712 2.87202 17.056 3.02402C17.408 3.16802 17.708 3.37602 17.956 3.64802C18.212 3.91202 18.408 4.23602 18.544 4.62002C18.68 4.99602 18.748 5.42002 18.748 5.89202V6.36002ZM17.596 5.54402C17.564 4.96002 17.396 4.51602 17.092 4.21202C16.788 3.90802 16.384 3.75602 15.88 3.75602C15.376 3.75602 14.968 3.91202 14.656 4.22402C14.344 4.52802 14.16 4.96802 14.104 5.54402H17.596Z" fill="#0D0D0D"/>
<path d="M11.308 8.868C11.276 8.74 11.252 8.616 11.236 8.496C11.228 8.368 11.22 8.236 11.212 8.1C11.036 8.388 10.784 8.612 10.456 8.772C10.136 8.932 9.772 9.012 9.364 9.012C8.716 9.012 8.156 8.82 7.684 8.436C7.228 8.052 7 7.424 7 6.552V3H8.14V6.36C8.14 6.952 8.284 7.376 8.572 7.632C8.852 7.88 9.192 8.004 9.592 8.004C10.048 8.004 10.428 7.86 10.732 7.572C11.036 7.276 11.188 6.852 11.188 6.3V3H12.316V7.788C12.316 7.956 12.328 8.148 12.352 8.364C12.376 8.572 12.404 8.74 12.436 8.868H11.308Z" fill="#0D0D0D"/>
<path d="M5.028 8.832C4.996 8.672 4.972 8.516 4.956 8.364C4.948 8.212 4.94 8.06 4.932 7.908C4.732 8.252 4.448 8.516 4.08 8.7C3.712 8.884 3.3 8.976 2.844 8.976C2.42 8.976 2.032 8.904 1.68 8.76C1.328 8.616 1.028 8.412 0.78 8.148C0.532 7.884 0.34 7.564 0.204 7.188C0.068 6.804 0 6.376 0 5.904C0 5.448 0.068 5.032 0.204 4.656C0.348 4.272 0.544 3.944 0.792 3.672C1.048 3.392 1.352 3.176 1.704 3.024C2.056 2.872 2.444 2.796 2.868 2.796C3.3 2.796 3.696 2.884 4.056 3.06C4.424 3.228 4.712 3.48 4.92 3.816V0H6.048V7.428C6.048 7.54 6.048 7.66 6.048 7.788C6.056 7.916 6.064 8.056 6.072 8.208C6.088 8.36 6.1 8.488 6.108 8.592C6.124 8.696 6.14 8.776 6.156 8.832H5.028ZM4.86 5.892C4.86 5.268 4.692 4.768 4.356 4.392C4.028 4.008 3.576 3.816 3 3.816C2.44 3.816 1.992 4.008 1.656 4.392C1.32 4.768 1.152 5.268 1.152 5.892C1.152 6.516 1.32 7.016 1.656 7.392C1.992 7.768 2.44 7.956 3 7.956C3.576 7.956 4.028 7.768 4.356 7.392C4.692 7.016 4.86 6.516 4.86 5.892Z" fill="#0D0D0D"/>
</svg>
