<?xml version="1.0" encoding="UTF-8"?>
<svg id="Livello_1" xmlns="http://www.w3.org/2000/svg" version="1.1" viewBox="0 0 69 10">
  <!-- Generator: Adobe Illustrator 29.8.1, SVG Export Plug-In . SVG Version: 2.1.1 Build 2)  -->
  <defs>
    <style>
      .st0 {
        fill: #31f7c8;
      }

      .st1 {
        fill: #61c6ff;
      }

      .st2 {
        fill: #fff;
      }
    </style>
  </defs>
  <circle class="st1" cx="29.3" cy="6.5" r="3"/>
  <circle class="st0" cx="23.3" cy="6.5" r="3"/>
  <path class="st2" d="M19.1,6.9h-4.7c0,.6.2,1,.6,1.2.3.3.7.4,1.2.4s.8,0,1-.3c.3-.2.5-.4.6-.8l.9.4c-.2.5-.6.9-1,1.2-.5.3-1,.4-1.6.4s-.8,0-1.2-.2c-.4-.2-.7-.4-.9-.6-.2-.3-.4-.6-.6-1-.1-.4-.2-.8-.2-1.2s0-.9.2-1.3c.1-.4.3-.7.6-1,.3-.3.6-.5.9-.6s.8-.2,1.2-.2.8,0,1.2.2c.4.1.7.4.9.6.3.3.5.6.6,1,.1.4.2.8.2,1.3v.5ZM17.9,6.1c0-.6-.2-1-.5-1.3-.3-.3-.7-.5-1.2-.5s-.9.2-1.2.5c-.3.3-.5.7-.6,1.3h3.5Z"/>
  <path class="st2" d="M11.6,9.4c0-.1,0-.3,0-.4,0-.1,0-.3,0-.4-.2.3-.4.5-.8.7-.3.2-.7.2-1.1.2-.6,0-1.2-.2-1.7-.6-.5-.4-.7-1-.7-1.9v-3.6h1.1v3.4c0,.6.1,1,.4,1.3.3.2.6.4,1,.4s.8-.1,1.1-.4c.3-.3.5-.7.5-1.3v-3.3h1.1v4.8c0,.2,0,.4,0,.6,0,.2,0,.4,0,.5h-1.1Z"/>
  <path class="st2" d="M5.4,9.3c0-.2,0-.3,0-.5,0-.2,0-.3,0-.5-.2.3-.5.6-.9.8s-.8.3-1.2.3-.8,0-1.2-.2-.7-.3-.9-.6c-.2-.3-.4-.6-.6-1-.1-.4-.2-.8-.2-1.3s0-.9.2-1.2c.1-.4.3-.7.6-1,.3-.3.6-.5.9-.6.4-.2.7-.2,1.2-.2s.8,0,1.2.3c.4.2.7.4.9.8V.5h1.1v7.8c0,.1,0,.3,0,.4,0,.2,0,.3,0,.4,0,.1,0,.2,0,.2h-1.1ZM5.2,6.4c0-.6-.2-1.1-.5-1.5-.3-.4-.8-.6-1.4-.6s-1,.2-1.3.6c-.3.4-.5.9-.5,1.5s.2,1.1.5,1.5c.3.4.8.6,1.3.6s1-.2,1.4-.6c.3-.4.5-.9.5-1.5Z"/>
  <path class="st2" d="M67.1,1.3c0-.2,0-.4.2-.6.2-.2.3-.2.6-.2s.4,0,.6.2c.2.2.2.3.2.6s0,.4-.2.6c-.2.2-.3.2-.6.2s-.4,0-.6-.2c-.1-.2-.2-.3-.2-.6ZM68.5,3.4v5.9h-1.1V3.4h1.1Z"/>
  <path class="st2" d="M66.8,3.4l-2.4,5.9h-1.1l-2.4-5.9h1.2l1.7,4.5,1.8-4.5h1.2Z"/>
  <path class="st2" d="M60.5,1.3c0,.2,0,.4-.2.6-.2.2-.3.2-.6.2s-.4,0-.6-.2c-.2-.2-.2-.3-.2-.6s0-.4.2-.6c.2-.2.3-.2.6-.2s.4,0,.6.2c.2.2.2.3.2.6ZM60.3,9.3h-1.1v-4.9h-2.2v4.9h-1.1v-4.9h-1.2v-.9h1.2v-1.8h1.1v1.8h3.3v5.9Z"/>
  <path class="st2" d="M53.4,9.3c0,0,0-.2,0-.3,0-.1,0-.3,0-.5-.2.3-.4.5-.8.7-.3.2-.7.3-1.2.3-.6,0-1.2-.2-1.6-.5-.4-.3-.6-.8-.6-1.4s.2-1,.6-1.4c.4-.3.9-.5,1.6-.5h1.9v-.2c0-.5-.1-.8-.4-1-.2-.2-.6-.3-1-.3-.8,0-1.3.3-1.6.9l-.8-.5c.2-.5.6-.8,1-1,.4-.2.9-.3,1.5-.3s.7,0,1,.1c.3,0,.6.2.8.4.2.2.4.4.5.7.1.3.2.6.2,1v2.5c0,.2,0,.5,0,.7,0,.2,0,.4,0,.5h-1.1ZM53.3,6.5h-1.7c-.4,0-.7,0-.9.3-.2.2-.3.4-.3.7s.1.6.3.7c.2.2.5.3.9.3s.9-.2,1.2-.5c.3-.3.5-.8.5-1.4v-.2Z"/>
  <path class="st2" d="M48.9,6.8h-4.7c0,.6.2,1,.6,1.2.3.3.7.4,1.2.4s.8,0,1-.3c.3-.2.5-.4.6-.8l.9.4c-.2.5-.6.9-1,1.2-.5.3-1,.4-1.6.4s-.8,0-1.2-.2c-.4-.2-.7-.4-.9-.6-.2-.3-.4-.6-.6-1-.1-.4-.2-.8-.2-1.2s0-.9.2-1.3c.1-.4.3-.7.6-1,.3-.3.6-.5.9-.6s.8-.2,1.2-.2.8,0,1.2.2c.4.1.7.4.9.6.3.3.5.6.6,1,.1.4.2.8.2,1.3v.5ZM47.7,6c0-.6-.2-1-.5-1.3s-.7-.5-1.2-.5-.9.2-1.2.5c-.3.3-.5.7-.6,1.3h3.5Z"/>
  <path class="st2" d="M42.5,3.3c.2,0,.4,0,.6,0v1c-.2,0-.4,0-.6,0-.5,0-.9.2-1.2.5-.3.3-.4.7-.4,1.3v3.1h-1.1V3.4h1.1v.7c.2-.3.4-.5.7-.6.3-.1.6-.2,1-.2Z"/>
  <path class="st2" d="M36.3,3.2c.7,0,1.2.2,1.7.5.5.3.8.7,1,1.3l-1,.4c-.1-.4-.3-.6-.6-.8-.3-.2-.6-.3-1-.3-.6,0-1,.2-1.3.6-.3.4-.5.9-.5,1.5s.2,1.1.5,1.5c.3.4.8.6,1.3.6s.7,0,1-.3c.3-.2.5-.5.6-.8l1,.4c-.2.6-.6,1-1,1.3-.5.3-1,.5-1.7.5s-.8,0-1.2-.2c-.4-.2-.7-.4-.9-.6-.3-.3-.5-.6-.6-1-.1-.4-.2-.8-.2-1.3s0-.9.2-1.3c.1-.4.3-.7.6-1,.3-.3.6-.5.9-.6.4-.2.8-.2,1.2-.2Z"/>
</svg>